<svg version="1" xmlns="http://www.w3.org/2000/svg" width="720" height="720" viewBox="0 0 540.000000 540.000000"><path d="M364 10.6c-70.3 9-137.1 40.4-203.5 95.9-15.7 13.1-43.6 40.5-56.9 55.8C48.8 225.6 12.7 296.8 2.3 362.2c-2.6 16.2-2.6 55.5 0 68.3 5.8 28.3 17.2 50.8 35.2 69.1 20.2 20.5 47.1 33.1 80.7 37.9 12 1.7 41.1 2 54.3.5 72.9-8.2 148.3-44 217.5-103.4 14.6-12.5 45.6-43.8 57.1-57.6 52.4-62.9 83.4-126.7 91.5-188.1 2.2-16.9 1.5-50.1-1.4-64.1-6.4-30.3-18.5-53.4-38.6-73.4-16.1-15.9-33-26.2-54.6-33.3-18.1-5.9-27.1-7.2-53-7.6-12.9-.2-25.1-.1-27 .1zm46.5 31.9c32.8 5.8 57 19.5 74.2 41.8 49.5 64.2 18.8 192.5-71.3 297.9-13 15.1-43.1 44.9-57.9 57.3-60.4 50.5-125.1 82.6-185.5 92.1-17.4 2.8-49.9 2.5-63.7-.4-27.5-5.9-47.8-16.1-64.3-32.3C23.7 481 13.5 461.3 7.3 432c-2.5-11.9-2.5-49 0-63.5C19.4 299.3 59.8 227.9 122 166 191.5 96.8 276.6 51.6 356 41.5c14.3-1.8 41.8-1.3 54.5 1z"/><path d="M375 82.2c-2.7 2.9-2.5 6.4.5 9.4 2.2 2.2 2.5 3.4 3 14.2.3 6.4.8 14.1 1 16.9.5 4.6.3 5.3-1.3 5.3-3.4 0-11.9 3-15.5 5.4l-3.5 2.4-7.6-8.9-7.5-8.9 2.1-3.5c2.4-4.3 2.7-11.8.5-16.1-6.4-12.4-24-12.7-30.4-.5-2.9 5.6-2.9 10.4 0 16.1 3.1 6.3 8.4 9.2 15.7 8.6 3-.2 6.3-.5 7.2-.7 1.1-.3 4.1 2.5 9.1 8.5l7.5 9-2.9 3.9c-1.5 2.1-3.3 5.3-3.9 7.1l-1 3.2-10.5-1.7c-6.6-1-11.3-2.3-12.4-3.3-5-4.6-12.1 1.9-7.3 6.6 2 2 2.5 2.1 5.6 1 2.7-1 5.2-.9 13.2.3 5.4.9 9.9 1.7 10 1.8.1.1.3 3.5.5 7.6l.4 7.4-16.5 6.3c-13.2 5.1-17.2 6.3-20.2 5.8-5.2-.8-7.8.9-7.8 5.1 0 4.6 3.8 7.4 7.6 5.6 1.4-.6 2.8-2 3.1-3.1.4-1.4 3.2-3 9.7-5.4 28.6-11 27.1-10.6 28-7.9.7 2.1 7.2 9.3 10.4 11.5 2.2 1.5 2.3 1.8 1.1 5.2-1.1 3.2-1.7 3.6-4.7 3.6-2.4 0-4.2.8-6.3 2.9-6.4 6.5-2 17.1 7.1 17.1 3.3 0 4.8-.6 7.1-2.9 3.4-3.4 3.8-7.2 1.3-12.4-1.5-3.1-1.5-3.6 0-6.6 1.5-2.7 2-3 4.4-2.4 1.5.5 6.2.8 10.5.8h7.7l1.4 4.5c4.3 13.2 5.7 19.5 4.8 19.8-2.9.9-7.9 5.1-10.4 8.7-3.4 4.9-4.5 12.1-2.8 18.5 1.8 6.8 8.9 13.4 16.1 15 13.8 3.1 26.8-7.2 26.9-21.3 0-11.5-9.3-21.7-19.9-21.7h-4l-2.6-8.8c-1.5-4.8-3-10-3.6-11.6-1.4-4.4-1.2-5 2.4-7 1.7-1 4.4-3 5.9-4.4l2.7-2.5 8.8 8.4c7.4 7 8.8 8.9 8.8 11.5 0 4 2.1 6.4 5.6 6.4 3.3 0 5.9-2.3 5.9-5.3 0-3.2-1.5-5-4.9-6.2-1.6-.5-7-4.9-11.9-9.7l-9.1-8.8 1.7-4c.9-2.2 2.3-4 3-4 .7 0 9.7 1.4 20 3.1 14.4 2.4 19.2 3.6 20.9 5.1 2.9 2.7 7 1.8 7.9-1.9.4-1.4.2-3.3-.3-4.2-1.2-1.9-5.9-2.7-7.6-1.3-.9.7-25.3-2.8-40.3-5.8-.1 0-.2-2.7-.2-5.9 0-3.3-.3-7.2-.6-8.8-.6-2.7-.4-2.9 6.9-5.5 7.2-2.6 7.5-2.6 8.8-.8.7 1 2.9 2.8 5 4 3 1.8 4.9 2.2 9.5 1.8 7.1-.5 11.7-3.4 14.3-9.2 3.9-8.6.9-18.1-7.1-22.3-12-6.4-25.1 1.3-25.3 14.8l-.1 4.8-7 2.6-7.1 2.6-1.9-2.8c-2.7-3.7-8.6-9.7-11-11-1.8-1-1.7-1.5 1.9-10.7 3.4-8.4 4.1-9.6 6.2-9.6 6 0 10.2-4.6 10.3-11.1 0-8.2-6.5-13-14.6-10.8-6.9 2-9.8 11.9-5 17.6l2.3 2.8-3.4 9c-1.9 4.9-3.5 9.1-3.7 9.3-.2.1-2.4-.2-4.9-.8l-4.5-1.2-.7-17.4c-.7-15.4-.6-17.7.9-19.3 3.6-3.9.5-11.1-4.9-11.1-1.3 0-3.3 1-4.5 2.2zM169.6 201c-19.3 3.5-38.7 11.2-54.9 21.8l-7.2 4.7 4 .5c6.6.9 13.5 3.3 13.5 4.7 0 .9 1.7 1.3 5.6 1.3 4.7 0 5.5-.3 5.2-1.8-.2-1.2-1.5-1.8-4.5-2-3.5-.3-4-.6-3.6-2.3.5-1.6 0-1.9-3.3-1.9l-3.9-.1 3.5-2.9c4.7-3.9 11.2-4.2 13.5-.6 2.4 3.6 8.1 4.4 11.1 1.5 3.2-3 4.4-1.6 1.4 1.6-1.6 1.7-3.4 2.5-5.7 2.5-3 0-3.3.3-3.3 3 0 2.9.1 3 5 3 3.6 0 5.2-.4 5.6-1.5.4-.9 1.9-1.5 4-1.5 3 0 3.4-.3 3.4-2.5 0-1.6-.6-2.5-1.5-2.5-.8 0-1.5-.4-1.5-1 0-1.7 3.7-2.9 7.4-2.3 3.7.6 3.7.6 1.8 2.7-1 1.1-1.6 3.1-1.4 4.3.3 1.9 1 2.3 3.8 2.3 3.2 0 3.4-.2 3.4-3.5 0-4.1 1.9-5.4 9.3-6.2 4.3-.4 6.3 0 12 2.6 5.8 2.6 6.7 3.4 6.7 5.7 0 1.7.6 2.8 2 3.1 3.4.9.6 4.3-3.5 4.3-2.5 0-3.5.5-3.5 1.5 0 2.3-1.9 2.6-8 1.2l-5.5-1.2 5.3-3.1 5.4-3.1-2.6-2c-3.5-2.8-11-2.1-14.7 1.3-1.4 1.3-3.5 2.4-4.8 2.4-1.8 0-2.2.4-1.8 2 .3 1.2 0 2-.8 2-.7 0-1.5.7-1.9 1.5-.9 2.4-2.6 1.7-2.6-1 0-1.4-.2-2.5-.4-2.5-1.7 0-9.9 3.7-14.8 6.6-5.6 3.4-6 3.9-5.4 6.7.7 3.4 3.1 5.6 6.3 5.7 4.2 0 5.3 1.1 5.3 5.1 0 3.4.3 3.9 2.3 3.9 1.7 0 2.8-1 4-3.4 1.2-2.7 2.6-3.8 5.7-4.7l4-1.2v-5.3c0-7.1 2-8.7 8.8-6.9 4.4 1.1 4.7 1.4 4.4 4.3-.2 2.8.1 3.2 2.3 3.2 1.5 0 3.9-.7 5.5-1.5l3-1.6v4.1c0 3.5.4 4.3 3 5.8 5.8 3.3 2.6 8.8-4.3 7.5-1.5-.3-2.7-.1-2.7.5 0 1.9-5.8 1.9-7.5 0-2.3-2.8-5.9-2-6.3 1.4-.3 2.3.1 2.8 1.8 2.8 1.2 0 1.9.4 1.6.9-.3.4-1.6.6-2.9.4-1.7-.3-3.4.7-6.7 4-2.5 2.4-5.9 5.1-7.5 6-3.8 1.9-13.5 12.1-13.5 14.1 0 .8-2.7 3.4-6 5.6-7 4.8-8.3 6.8-7.4 11.5.7 3.9.6 4-3.1 2.3-1.8-.8-2.5-1.9-2.5-4V308h-8.5c-7.2 0-9.4.4-13.6 2.5-11.4 5.8-14.3 21.4-4.2 22.8 3.1.4 4.7-.1 8.9-2.9 2.8-1.9 5.4-3.4 5.7-3.4 1.3 0 .7 3.5-.9 5.8-2 2.9-1.3 3.8 3.6 4.6l4 .6v6.4c0 7.2 0 7.1 8.2 8.2 5.1.7 5.1.7 8.8-3.6 3.5-4.1 3.8-4.2 7.8-3.5 2.9.5 4.8 1.5 5.9 3.1 1.2 1.9 2.4 2.4 5.9 2.4 3 0 4.6-.5 5-1.4.9-2.4 4.7 0 7.7 5 2.5 4.2 2.8 4.4 7.5 4.4 4.5 0 4.9.2 6.5 3.5.9 2 1.7 5 1.7 6.8 0 3.1.3 3.4 5.3 5 2.8.9 8.3 1.9 12 2.3 6.2.5 7.1.9 8.5 3.5 1 1.6 2.9 3.1 4.5 3.5 3.8.8 3.5 3.8-.8 9.3-1.9 2.4-3.5 4.7-3.5 5 0 .3-.5 4.4-1 9-.8 7.5-1.3 8.8-3.7 10.8-2 1.6-4.1 2.2-7.4 2.3-4.2 0-4.8.3-5.8 2.9-.9 2.1-1 3.9-.1 7 1 4 1 4.2-3.8 10.3-2.7 3.5-5.4 7.3-6.1 8.6-1.4 2.6-10 7.2-13.6 7.2-3.1 0-3.5 3.3-.4 4.6l2 .9-2.1 2.8c-1.8 2.2-2 3-1 4.2.7.8 2.1 1.5 3.2 1.5 1.7 0 1.8.5 1.2 4.7-.5 4.4-.3 5 2.5 7.7 1.7 1.6 2.8 3.3 2.5 3.8-.3.4-2.3.8-4.5.8-3.2 0-4.7-.7-8.4-4.1-2.4-2.2-5.8-6.5-7.5-9.5-2.5-4.5-3-6.5-3-12.1-.1-5.6-.5-7.3-2.4-9.6-2-2.5-2.2-3.5-1.5-7 1.2-6.4 1.1-8.7-.6-8.7-1.3 0-1.5-2.1-1.5-12.9v-12.9l-4-3.2c-2.2-1.7-5.2-3.5-6.7-3.9-1.8-.5-2.9-1.6-3.4-3.5-.4-1.5-3.1-5.7-6.1-9.4l-5.3-6.7.9-6.5c.8-6 1.2-6.8 4.5-9.2 3.6-2.6 3.7-2.8 3.2-7.5l-.6-4.8-5.7-.7c-5.2-.7-6.1-1.2-11-6.1-4.2-4.4-6.2-5.6-9.5-6.2-3.3-.5-4.3-1.1-4.3-2.6 0-2.1-4.8-3.9-5.9-2.1-.5.8-2.4.6-6.6-.4-5.3-1.3-6.3-2-8.3-5.4-1.2-2.1-1.9-4.6-1.6-5.4.3-.9.1-1.6-.6-1.6-.6 0-.9-.8-.6-1.8.4-1-.8-3.6-2.9-6.6-1.9-2.7-3.5-5.9-3.5-7 0-4.1-1.2-6.6-3.1-6.6-2.9 0-2.4 5.8 1.1 12.5 3.2 6.2 3.7 8.5 1.8 8.5-2.1 0-3.2-1.2-6.1-6.2-2.1-3.6-2.7-6-2.7-10.6 0-5.7-.1-6-3-7.2-2.7-1.1-3-1.7-3-5.7 0-4.8 3.4-12.6 8.1-18.3 1.6-1.9 2.9-4.6 2.9-6-.1-2.3-.3-2.2-2.3 1.4-1.2 2.1-3.9 6.1-5.9 8.9-2.1 2.8-3.8 6-3.8 7s-1.4 5.7-3 10.5c-4.6 12.9-5.4 17-3.5 18.8.8.9 1.5 2.2 1.5 2.9 0 2.1 3.9 8.2 5.7 8.9 3 1.2-.6 3.6-5.3 3.6-3.6 0-4.4-.3-4.4-1.9 0-1 .9-2.1 2-2.4 2.6-.7 2.6-3.3-.1-4.7-1.1-.7-2.2-1-2.4-.8-.8.8-2.5 19.2-2.5 26.8.2 76.4 58.3 140.8 134.6 149.1 36.1 3.9 75.8-7 104.8-28.7 8.3-6.3 26.6-23.8 26.6-25.6 0-.4-.9-.8-2-.8-1.7 0-2-.7-2-4.8 0-3.8-.6-5.7-3-8.8-2.5-3.3-2.9-4.8-3-10 0-5.1-.4-6.4-2.5-8.4-3.2-3-3.1-4.8.4-11.8l2.9-5.8-5.3-9.3c-5.1-9-5.2-9.4-4.8-15.6l.6-6.3-5.1-.7c-2.8-.4-5.6-1.3-6.3-2.1-1.5-1.8-8.7-1.8-10.8 0-.9.7-5.1 1.6-9.8 1.9l-8.1.6-7.1-8.2-7.1-8.2v-6.1c0-4.6.4-6.3 1.5-6.8 2.3-.8 1.9-5.3-.5-5.9-4.2-1.1-2.3-4.4 6-10.2 7.9-5.6 8-5.7 8-10 0-4.2.3-4.6 4-6.5 2.4-1.2 5.9-2 9-2 2.8 0 6.3-.6 7.8-1.4 1.5-.7 6.2-1.6 10.5-1.9l7.7-.7v8.7l5.8 1.3c3.1.7 6.9 1.9 8.4 2.6 3.8 2 4.8 1.8 4.8-1.1 0-2.3.4-2.5 4.1-2.5 2.8 0 5.1.8 7.3 2.5 2.7 2 4.4 2.5 9.4 2.5 3.3 0 6.3-.4 6.6-.9.3-.4-.4-3.6-1.5-7l-2.1-6.1h-4.3c-5.1 0-7.5-2.4-7.5-7.7 0-1.8-.3-3.3-.8-3.3-2.2 0-5 3.4-5.7 6.7l-.7 3.8-2.9-3.3c-1.7-1.9-2.9-4.4-2.9-6 0-3.8-6.6-9.2-11.3-9.2h-3.5l1 3.3c.7 2.4 2.2 4 5.3 5.7 3.9 2.1 4.1 2.5 3.6 5.4-.6 2.6-1.2 3.2-3.9 3.4-3.5.4-4.5-1.5-1-2 3.8-.5 3-2.3-2.8-6.3-3.1-2.1-5.9-4.7-6.3-5.7-.7-1.8-.8-1.8-3.4.2-1.5 1.2-3.7 2-4.9 1.8-1.8-.2-3.3 1-6.5 5.1-2.4 3-4.3 6-4.3 6.8 0 1.5-11.6 1.9-13.9.4-.7-.5-1.6-3.1-1.9-5.9-.4-4.4-.2-5.1 1.8-6.2 1.5-.8 4.4-1 8.1-.7 5.4.6 5.7.5 6.1-1.8.3-1.5 0-2.6-.9-2.9-.9-.4-1.3-1.6-1.1-3.3.3-2.3.9-2.9 4.3-3.6 3.1-.6 4.7-1.7 6.8-4.7 2.8-3.9 3-4 8.8-4 6.3 0 6.7-.4 5.3-5.7-.5-1.8-1-2-3.1-1.2-3.5 1.3-4 1.2-4.7-1.6-.4-1.6-1.3-2.5-2.6-2.5-4.7 0-1.2-6.2 4.3-7.5 1.5-.4 3.2-1.6 3.8-2.7 1.4-2.5-.5-4.6-11.1-12.2-15.7-11.4-36.4-20.5-55.7-24.7-14.7-3.1-43-3.6-57.7-.9zm30.4 71.7c0 1.6-1.7 1.6-5.9.2-3.1-1.1-4.2-3.4-1.9-4.1 1.7-.6 7.8 2.4 7.8 3.9z"/><path d="M109.8 234.7c-1 .2-1.8 1.3-1.8 2.4 0 1.5.7 1.9 3.8 1.9 3.9 0 6.2-1.4 6.2-3.7 0-1.3-4.4-1.6-8.2-.6zM110.2 242.7c-3.5.7-2 2.8 2.3 3.1 3.5.3 5.4-.8 5.5-3.1 0-.7-3.8-.7-7.8 0zM304 249.5c0 2.9-.6 3.9-3 5.3-4.8 2.7-3.8 4.2 2.9 4.2 5 0 6.2-.4 7.5-2.1 1.4-2 1.2-2.5-2.1-6.5-1.9-2.4-3.9-4.4-4.4-4.4-.5 0-.9 1.6-.9 3.5zM123.3 258.5c-1.5 1.1-1.5 1.7-.5 3.9 1.8 4 5.5 3.2 6.7-1.5.6-2.3.3-2.7-1.9-3.1-1.4-.3-3.4 0-4.3.7zM131.6 270.6c-2 2-2 3.4-.1 3.4s1.9 1.4.1 2.9c-2.3 1.9-2.6 6-.6 7.1 1.5.8 2.4.1 5.1-4 1.9-2.7 3.7-5 4.1-5 1.6 0 1.2 6.6-.4 8.2-1 1-1.8 2.2-1.8 2.8 0 1.4 5.4 1.2 6.8-.2 1.8-1.8 1.5-4.8-.5-4.9-1.4 0-1.3-.2.5-.9 2.3-1 3.1-4.9 1-5.1-.7 0-.5-.4.5-.8 1.7-.6 1.7-.8-.2-2.5-2.1-1.9-2.1-1.9-2.2 1l-.1 2.9-.9-3.3c-.9-3-1.3-3.2-5.4-3.2-2.6 0-5 .6-5.9 1.6zM150 275.5c-1 1.2-.9 1.6.5 2.1 2.3.9 4-1 2.2-2.5-1.1-.9-1.7-.8-2.7.4zM148.2 280.7c.2 2.4.8 2.8 3.3 2.8 4.3 0 4.6-2.9.4-4.4-4.2-1.5-4.1-1.5-3.7 1.6zM328.7 280.6c-.4.4-.7 2.5-.7 4.6 0 3.4.3 3.8 2.5 3.8 1.4 0 2.5-.6 2.5-1.3-.1-2.1-3.5-7.8-4.3-7.1z"/></svg>